<svg xmlns="http://www.w3.org/2000/svg" xmlns:xlink="http://www.w3.org/1999/xlink" viewBox="0 0 512 512" width="512" height="512">
    <style>
        circle {
            stroke: black;
            stroke-width: 2; 
            fill: none;
            
        }
        path {
            stroke: black;
            stroke-width: 2;
            fill: #4CAF50;
            
        }
        path:nth-child(n+2) {
            fill: white;
        }
    </style>
    <g transform="scale(5.12)">
        <path d="M50 50 L50 10 A40 40 0 0 1 73.5 17.6 Z" />
        <path d="M50 50 L73.5 17.6 A40 40 0 0 1 88 37.6 Z" />
        <path d="M50 50 L88 37.6 A40 40 0 0 1 88 62.4 Z" />
        <path d="M50 50 L88 62.4 A40 40 0 0 1 73.5 82.4 Z" />
        <path d="M50 50 L73.5 82.4 A40 40 0 0 1 50 90 Z" />
        <path d="M50 50 L50 90 A40 40 0 0 1 26.5 82.4 Z" />
        <path d="M50 50 L26.5 82.4 A40 40 0 0 1 12 62.4 Z" />
        <path d="M50 50 L12 62.4 A40 40 0 0 1 12 37.6 Z" />
        <path d="M50 50 L12 37.6 A40 40 0 0 1 26.5 17.6 Z" />
        <path d="M50 50 L26.5 17.6 A40 40 0 0 1 50 10 Z" />
        <circle cx="50" cy="50" r="40" />
    </g>
</svg>